<svg width="191" height="183" viewBox="0 0 191 183" fill="none" xmlns="http://www.w3.org/2000/svg">
<path d="M14 96.0156C14 95.7266 14.0664 95.4766 14.1992 95.2656C14.332 95.0469 14.5469 94.9375 14.8438 94.9375H16.4727L24.2305 77.418C24.3477 77.1445 24.5234 76.8984 24.7578 76.6797C24.9922 76.4531 25.2969 76.3398 25.6719 76.3398C26.0625 76.3398 26.3594 76.457 26.5625 76.6914C26.7734 76.918 26.9375 77.1758 27.0547 77.4648L34.0977 94.9375H36.1836C36.4805 94.9375 36.6914 95.0469 36.8164 95.2656C36.9492 95.4766 37.0156 95.7266 37.0156 96.0156C37.0156 96.2734 36.9414 96.5039 36.793 96.707C36.6445 96.9023 36.4336 97 36.1602 97H28.6016C28.3281 97 28.1133 96.9023 27.957 96.707C27.8086 96.5039 27.7344 96.2734 27.7344 96.0156C27.7344 95.7266 27.8008 95.4766 27.9336 95.2656C28.0664 95.0469 28.2812 94.9375 28.5781 94.9375H31.1445L29.4102 90.3555H20.9141L19.0742 94.9375H21.2539C21.5508 94.9375 21.7656 95.0469 21.8984 95.2656C22.0312 95.4766 22.0977 95.7266 22.0977 96.0156C22.0977 96.2734 22.0195 96.5039 21.8633 96.707C21.7148 96.9023 21.5039 97 21.2305 97H14.8672C14.5938 97 14.3789 96.9023 14.2227 96.707C14.0742 96.5039 14 96.2734 14 96.0156ZM21.6406 88.5508H28.7422L25.3086 79.4336L21.6406 88.5508ZM41.8203 80.2773C41.3281 80.2773 40.9062 80.1055 40.5547 79.7617C40.2109 79.4102 40.0391 78.9883 40.0391 78.4961C40.0391 78.0039 40.2109 77.5859 40.5547 77.2422C40.9062 76.8906 41.3281 76.7148 41.8203 76.7148C42.3125 76.7148 42.7305 76.8906 43.0742 77.2422C43.418 77.5859 43.5898 78.0039 43.5898 78.4961C43.5898 78.9883 43.418 79.4102 43.0742 79.7617C42.7305 80.1055 42.3125 80.2773 41.8203 80.2773ZM38.2109 96.0273C38.2109 95.7383 38.2812 95.4922 38.4219 95.2891C38.5703 95.0781 38.7969 94.9727 39.1016 94.9727H40.707V85.4805L39.0312 85.9375C39.0156 85.9453 38.9922 85.9531 38.9609 85.9609C38.9375 85.9609 38.9062 85.9609 38.8672 85.9609C38.6328 85.9609 38.4141 85.8672 38.2109 85.6797C38.0078 85.4844 37.9062 85.2656 37.9062 85.0234C37.9062 84.7734 37.9609 84.5625 38.0703 84.3906C38.1875 84.2109 38.3555 84.0938 38.5742 84.0391L42.3242 83.1016C42.3477 83.0938 42.375 83.0898 42.4062 83.0898C42.4375 83.082 42.4727 83.0781 42.5117 83.0781C42.6836 83.0781 42.8242 83.1289 42.9336 83.2305C43.0508 83.3242 43.1094 83.457 43.1094 83.6289V94.9727H44.9141C45.2109 94.9727 45.4258 95.082 45.5586 95.3008C45.6914 95.5117 45.7578 95.7617 45.7578 96.0508C45.7578 96.3086 45.6797 96.5312 45.5234 96.7188C45.375 96.9062 45.1641 97 44.8906 97H39.1719C38.8438 97 38.6016 96.9141 38.4453 96.7422C38.2891 96.5625 38.2109 96.3242 38.2109 96.0273ZM67.9766 83.0781C69.4141 83.0781 70.6094 83.5117 71.5625 84.3789C72.5156 85.2461 72.9922 86.4062 72.9922 87.8594V94.9375H74.7031C75 94.9375 75.2109 95.0469 75.3359 95.2656C75.4688 95.4766 75.5352 95.7266 75.5352 96.0156C75.5352 96.2734 75.4609 96.5039 75.3125 96.707C75.1641 96.9023 74.9531 97 74.6797 97H68.9609C68.6328 97 68.3906 96.9062 68.2344 96.7188C68.0781 96.5312 68 96.2891 68 95.9922C68 95.7031 68.0703 95.457 68.2109 95.2539C68.3594 95.043 68.5859 94.9375 68.8906 94.9375H70.625V88.0703C70.625 87.1406 70.3867 86.4102 69.9102 85.8789C69.4414 85.3398 68.7344 85.0703 67.7891 85.0703C66.5312 85.0703 65.4727 85.4062 64.6133 86.0781C63.7539 86.75 63.0859 87.5273 62.6094 88.4102V94.9375H64.543C64.8398 94.9375 65.0547 95.0469 65.1875 95.2656C65.3203 95.4766 65.3867 95.7266 65.3867 96.0156C65.3867 96.2734 65.3086 96.5039 65.1523 96.707C65.0039 96.9023 64.793 97 64.5195 97H58.332C58.0039 97 57.7617 96.9062 57.6055 96.7188C57.4492 96.5312 57.3711 96.2891 57.3711 95.9922C57.3711 95.7031 57.4414 95.457 57.582 95.2539C57.7305 95.043 57.957 94.9375 58.2617 94.9375H60.2305V88.0703C60.2305 87.1406 59.9922 86.4102 59.5156 85.8789C59.0469 85.3398 58.3398 85.0703 57.3945 85.0703C56.0742 85.0703 54.9609 85.3828 54.0547 86.0078C53.1562 86.6328 52.4844 87.3945 52.0391 88.293V94.9375H54.207C54.5039 94.9375 54.7148 95.0469 54.8398 95.2656C54.9727 95.4766 55.0391 95.7266 55.0391 96.0156C55.0391 96.2734 54.9648 96.5039 54.8164 96.707C54.668 96.9023 54.457 97 54.1836 97H47.9844C47.6562 97 47.4141 96.9062 47.2578 96.7188C47.1016 96.5312 47.0234 96.2891 47.0234 95.9922C47.0234 95.7031 47.0938 95.457 47.2344 95.2539C47.3828 95.043 47.6094 94.9375 47.9141 94.9375H49.6484V85.5273L47.9609 85.9375C47.9453 85.9453 47.9219 85.9531 47.8906 85.9609C47.8672 85.9609 47.8359 85.9609 47.7969 85.9609C47.5625 85.9609 47.3438 85.8672 47.1406 85.6797C46.9375 85.4844 46.8359 85.2656 46.8359 85.0234C46.8359 84.7578 46.8906 84.5469 47 84.3906C47.1172 84.2266 47.2852 84.1094 47.5039 84.0391L50.7734 83.1016C50.8047 83.1016 50.8242 83.0977 50.832 83.0898C50.8398 83.082 50.8594 83.0781 50.8906 83.0781H50.9609C51.125 83.0781 51.2656 83.1289 51.3828 83.2305C51.5 83.3242 51.5586 83.457 51.5586 83.6289L51.8047 85.8438C52.2734 85.0547 53.0391 84.3984 54.1016 83.875C55.1719 83.3438 56.3359 83.0781 57.5938 83.0781C58.7734 83.0781 59.7695 83.3555 60.582 83.9102C61.3945 84.4648 61.9648 85.1797 62.293 86.0547C62.832 85.2734 63.5859 84.582 64.5547 83.9805C65.5234 83.3789 66.6641 83.0781 67.9766 83.0781ZM101.234 90.3086C101.234 92.1836 100.449 93.8164 98.8789 95.207C97.3086 96.5977 95.2148 97.293 92.5977 97.293C89.6523 97.293 87.1953 96.3242 85.2266 94.3867C83.2656 92.4414 82.2852 89.8398 82.2852 86.582C82.2852 83.6055 83.2852 81.2031 85.2852 79.375C87.293 77.5391 89.8047 76.6211 92.8203 76.6211C94.0938 76.6211 95.1875 76.8359 96.1016 77.2656C97.0156 77.6875 97.8242 78.2578 98.5273 78.9766V77.7578C98.5273 77.4609 98.6328 77.2461 98.8438 77.1133C99.0625 76.9805 99.3164 76.9141 99.6055 76.9141C99.8633 76.9141 100.09 76.9922 100.285 77.1484C100.488 77.2969 100.59 77.5078 100.59 77.7812V82.1641C100.59 82.4375 100.488 82.6523 100.285 82.8086C100.09 82.957 99.8633 83.0312 99.6055 83.0312C99.3398 83.0312 99.1445 82.9297 99.0195 82.7266C98.8945 82.5156 98.7617 82.3125 98.6211 82.1172C98.0508 81.1797 97.3047 80.3984 96.3828 79.7734C95.4688 79.1484 94.2812 78.8359 92.8203 78.8359C90.5078 78.8359 88.6875 79.582 87.3594 81.0742C86.0312 82.5586 85.3672 84.4375 85.3672 86.7109C85.3672 89.2734 86.0156 91.2969 87.3125 92.7812C88.6094 94.2578 90.4453 94.9961 92.8203 94.9961C94.4688 94.9961 95.8047 94.5508 96.8281 93.6602C97.8516 92.7617 98.5078 91.5703 98.7969 90.0859C98.8516 89.8047 98.9961 89.5977 99.2305 89.4648C99.4727 89.3242 99.7266 89.2539 99.9922 89.2539C100.297 89.2539 100.578 89.3438 100.836 89.5234C101.102 89.7031 101.234 89.9648 101.234 90.3086ZM110.598 85.0703C109.113 85.0703 107.961 85.5508 107.141 86.5117C106.328 87.4727 105.922 88.6953 105.922 90.1797C105.922 91.6719 106.328 92.8984 107.141 93.8594C107.961 94.8203 109.113 95.3008 110.598 95.3008C112.043 95.3008 113.16 94.8125 113.949 93.8359C114.738 92.8594 115.133 91.6406 115.133 90.1797C115.133 88.7188 114.738 87.5039 113.949 86.5352C113.16 85.5586 112.043 85.0703 110.598 85.0703ZM110.598 97.293C108.434 97.293 106.68 96.6484 105.336 95.3594C103.992 94.0703 103.32 92.3438 103.32 90.1797C103.32 88.0078 103.992 86.2812 105.336 85C106.688 83.7188 108.441 83.0781 110.598 83.0781C112.723 83.0781 114.441 83.7305 115.754 85.0352C117.066 86.332 117.723 88.0469 117.723 90.1797C117.723 92.3125 117.066 94.0312 115.754 95.3359C114.441 96.6406 112.723 97.293 110.598 97.293ZM128.914 85.2109C127.977 85.2109 127.141 85.418 126.406 85.832C125.672 86.2461 125.113 86.7383 124.73 87.3086V94.9375H127.871C128.168 94.9375 128.383 95.0469 128.516 95.2656C128.648 95.4766 128.715 95.7266 128.715 96.0156C128.715 96.2734 128.637 96.5039 128.48 96.707C128.332 96.9023 128.121 97 127.848 97H120.102C119.773 97 119.531 96.9062 119.375 96.7188C119.219 96.5312 119.141 96.2891 119.141 95.9922C119.141 95.7031 119.211 95.457 119.352 95.2539C119.5 95.043 119.727 94.9375 120.031 94.9375H122.328V85.5273L120.652 85.9375C120.637 85.9453 120.613 85.9531 120.582 85.9609C120.559 85.9609 120.527 85.9609 120.488 85.9609C120.254 85.9609 120.035 85.8672 119.832 85.6797C119.629 85.4844 119.527 85.2656 119.527 85.0234C119.527 84.7578 119.582 84.5469 119.691 84.3906C119.809 84.2266 119.977 84.1094 120.195 84.0391L123.465 83.1016C123.496 83.1016 123.516 83.0977 123.523 83.0898C123.531 83.082 123.551 83.0781 123.582 83.0781H123.652C123.816 83.0781 123.957 83.1289 124.074 83.2305C124.191 83.3242 124.25 83.457 124.25 83.6289L124.496 85.8438C125.035 85.0234 125.742 84.3594 126.617 83.8516C127.5 83.3359 128.625 83.0781 129.992 83.0781C130.25 83.0781 130.477 83.1562 130.672 83.3125C130.875 83.4609 130.977 83.6719 130.977 83.9453V86.4414C130.977 86.7695 130.883 87.0117 130.695 87.168C130.508 87.3242 130.266 87.4023 129.969 87.4023C129.68 87.4023 129.43 87.332 129.219 87.1914C129.016 87.043 128.914 86.8164 128.914 86.5117V85.2109ZM141.793 85.0703C140.746 85.0703 139.75 85.418 138.805 86.1133C137.867 86.8008 137.398 87.668 137.398 88.7148V94.9375H139.109C139.406 94.9375 139.617 95.0469 139.742 95.2656C139.875 95.4766 139.941 95.7266 139.941 96.0156C139.941 96.2734 139.867 96.5039 139.719 96.707C139.57 96.9023 139.359 97 139.086 97H133.613C133.285 97 133.043 96.9062 132.887 96.7188C132.73 96.5312 132.652 96.2891 132.652 95.9922C132.652 95.7031 132.723 95.457 132.863 95.2539C133.012 95.043 133.238 94.9375 133.543 94.9375H134.996V85.5273L133.32 85.9375C133.305 85.9453 133.281 85.9531 133.25 85.9609C133.227 85.9609 133.195 85.9609 133.156 85.9609C132.922 85.9609 132.703 85.8672 132.5 85.6797C132.297 85.4844 132.195 85.2656 132.195 85.0234C132.195 84.7578 132.25 84.5469 132.359 84.3906C132.477 84.2266 132.645 84.1094 132.863 84.0391L136.133 83.1016C136.164 83.1016 136.184 83.0977 136.191 83.0898C136.199 83.082 136.219 83.0781 136.25 83.0781H136.32C136.484 83.0781 136.625 83.1289 136.742 83.2305C136.859 83.3242 136.918 83.457 136.918 83.6289L137.164 85.8438C137.562 85.125 138.23 84.4844 139.168 83.9219C140.113 83.3594 141.133 83.0781 142.227 83.0781C143.688 83.0781 144.848 83.5078 145.707 84.3672C146.566 85.2266 146.996 86.3906 146.996 87.8594V94.9375H148.461C148.758 94.9375 148.973 95.0469 149.105 95.2656C149.238 95.4766 149.305 95.7266 149.305 96.0156C149.305 96.2734 149.227 96.5039 149.07 96.707C148.922 96.9023 148.711 97 148.438 97H142.73C142.402 97 142.16 96.9062 142.004 96.7188C141.848 96.5312 141.77 96.2891 141.77 95.9922C141.77 95.7031 141.84 95.457 141.98 95.2539C142.129 95.043 142.355 94.9375 142.66 94.9375H144.629V88.0703C144.629 87.1406 144.391 86.4102 143.914 85.8789C143.445 85.3398 142.738 85.0703 141.793 85.0703ZM153.02 90.4492C153.02 91.9805 153.496 93.1484 154.449 93.9531C155.41 94.75 156.59 95.1484 157.988 95.1484C158.98 95.1484 159.758 94.9648 160.32 94.5977C160.891 94.2227 161.434 93.7969 161.949 93.3203C162.066 93.2188 162.191 93.1445 162.324 93.0977C162.457 93.043 162.59 93.0156 162.723 93.0156C163.035 93.0156 163.301 93.1133 163.52 93.3086C163.738 93.4961 163.848 93.75 163.848 94.0703C163.848 95.0703 163.121 95.8594 161.668 96.4375C160.223 97.0078 158.965 97.293 157.895 97.293C155.754 97.293 153.988 96.6602 152.598 95.3945C151.215 94.1211 150.523 92.4102 150.523 90.2617C150.523 88.1367 151.16 86.4102 152.434 85.082C153.707 83.7461 155.434 83.0781 157.613 83.0781C159.176 83.0781 160.602 83.6211 161.891 84.707C163.18 85.7852 163.824 87.1797 163.824 88.8906C163.824 89.4766 163.641 89.8281 163.273 89.9453C162.914 90.0625 162.457 90.1484 161.902 90.2031L153.02 90.4492ZM160.883 88.1406C160.883 87.0234 160.539 86.2344 159.852 85.7734C159.172 85.3047 158.426 85.0703 157.613 85.0703C156.238 85.0703 155.145 85.4102 154.332 86.0898C153.527 86.7695 153.074 87.6719 152.973 88.7969L160.016 88.6445C160.234 88.6367 160.434 88.5977 160.613 88.5273C160.793 88.4492 160.883 88.3203 160.883 88.1406ZM175.344 85.2109C174.406 85.2109 173.57 85.418 172.836 85.832C172.102 86.2461 171.543 86.7383 171.16 87.3086V94.9375H174.301C174.598 94.9375 174.812 95.0469 174.945 95.2656C175.078 95.4766 175.145 95.7266 175.145 96.0156C175.145 96.2734 175.066 96.5039 174.91 96.707C174.762 96.9023 174.551 97 174.277 97H166.531C166.203 97 165.961 96.9062 165.805 96.7188C165.648 96.5312 165.57 96.2891 165.57 95.9922C165.57 95.7031 165.641 95.457 165.781 95.2539C165.93 95.043 166.156 94.9375 166.461 94.9375H168.758V85.5273L167.082 85.9375C167.066 85.9453 167.043 85.9531 167.012 85.9609C166.988 85.9609 166.957 85.9609 166.918 85.9609C166.684 85.9609 166.465 85.8672 166.262 85.6797C166.059 85.4844 165.957 85.2656 165.957 85.0234C165.957 84.7578 166.012 84.5469 166.121 84.3906C166.238 84.2266 166.406 84.1094 166.625 84.0391L169.895 83.1016C169.926 83.1016 169.945 83.0977 169.953 83.0898C169.961 83.082 169.98 83.0781 170.012 83.0781H170.082C170.246 83.0781 170.387 83.1289 170.504 83.2305C170.621 83.3242 170.68 83.457 170.68 83.6289L170.926 85.8438C171.465 85.0234 172.172 84.3594 173.047 83.8516C173.93 83.3359 175.055 83.0781 176.422 83.0781C176.68 83.0781 176.906 83.1562 177.102 83.3125C177.305 83.4609 177.406 83.6719 177.406 83.9453V86.4414C177.406 86.7695 177.312 87.0117 177.125 87.168C176.938 87.3242 176.695 87.4023 176.398 87.4023C176.109 87.4023 175.859 87.332 175.648 87.1914C175.445 87.043 175.344 86.8164 175.344 86.5117V85.2109Z" fill="#292929"/>
<path d="M65.9622 54.9932C56.3229 59.8771 47.31 47.4423 54.951 39.8013L84.4993 10.253C88.2092 6.54307 94.2243 6.54307 97.9343 10.253L127.483 39.8013C135.123 47.4423 126.111 59.8771 116.471 54.9931L97.7703 45.5179C93.6506 43.4306 88.783 43.4306 84.6633 45.5179L65.9622 54.9932Z" stroke="#292929" stroke-width="5"/>
<path d="M116.471 127.44C126.111 122.556 135.124 134.991 127.483 142.632L97.9343 172.181C94.2243 175.89 88.2092 175.89 84.4993 172.181L54.951 142.632C47.31 134.991 56.3229 122.556 65.9622 127.44L84.6633 136.916C88.783 139.003 93.6506 139.003 97.7703 136.916L116.471 127.44Z" stroke="#292929" stroke-width="5"/>
</svg>
